<svg xmlns="http://www.w3.org/2000/svg" viewBox="0 0 50 50"
 width="600" height="600" role="img"
 aria-labelledby="flowerTitle flowerDesc">
<title id="flowerTitle">Pixelated flower</title>
<desc id="flowerDesc">A small pale mint and cream pixel-art flower with a warm yellow center and green stem.</desc>
<g shape-rendering="crispEdges">
<g fill="#f8f7d8">
<rect x="20" y="11" width="3" height="1"/>
<rect x="25" y="11" width="2" height="1"/>
<rect x="13" y="12" width="6" height="1"/>
<rect x="21" y="12" width="2" height="1"/>
<rect x="25" y="12" width="4" height="1"/>
<rect x="13" y="13" width="7" height="1"/>
<rect x="22" y="13" width="2" height="1"/>
<rect x="26" y="13" width="3" height="1"/>
<rect x="30" y="13" width="3" height="1"/>
<rect x="14" y="14" width="7" height="1"/>
<rect x="23" y="14" width="2" height="1"/>
<rect x="27" y="14" width="1" height="1"/>
<rect x="29" y="14" width="3" height="1"/>
<rect x="33" y="14" width="1" height="1"/>
<rect x="11" y="15" width="3" height="1"/>
<rect x="19" y="15" width="2" height="1"/>
<rect x="23" y="15" width="2" height="1"/>
<rect x="27" y="15" width="1" height="1"/>
<rect x="29" y="15" width="4" height="1"/>
<rect x="10" y="16" width="3" height="1"/>
<rect x="19" y="16" width="3" height="1"/>
<rect x="23" y="16" width="2" height="1"/>
<rect x="27" y="16" width="1" height="1"/>
<rect x="29" y="16" width="3" height="1"/>
<rect x="7" y="17" width="6" height="1"/>
<rect x="30" y="17" width="1" height="1"/>
<rect x="36" y="17" width="2" height="1"/>
<rect x="7" y="18" width="1" height="1"/>
<rect x="33" y="18" width="2" height="1"/>
<rect x="36" y="18" width="4" height="1"/>
<rect x="32" y="19" width="9" height="1"/>
<rect x="31" y="20" width="5" height="1"/>
<rect x="40" y="20" width="2" height="1"/>
<rect x="12" y="21" width="1" height="1"/>
<rect x="32" y="21" width="3" height="1"/>
<rect x="11" y="22" width="2" height="1"/>
<rect x="15" y="22" width="2" height="1"/>
<rect x="11" y="23" width="4" height="1"/>
<rect x="33" y="23" width="3" height="1"/>
<rect x="11" y="24" width="2" height="1"/>
<rect x="33" y="24" width="1" height="1"/>
<rect x="35" y="24" width="2" height="1"/>
<rect x="36" y="25" width="1" height="1"/>
<rect x="38" y="25" width="3" height="1"/>
<rect x="43" y="26" width="1" height="1"/>
<rect x="35" y="27" width="2" height="1"/>
<rect x="23" y="28" width="1" height="1"/>
<rect x="36" y="28" width="3" height="1"/>
<rect x="22" y="29" width="1" height="1"/>
<rect x="30" y="29" width="1" height="1"/>
<rect x="37" y="29" width="2" height="1"/>
<rect x="22" y="30" width="3" height="1"/>
<rect x="28" y="30" width="3" height="1"/>
<rect x="32" y="30" width="2" height="1"/>
<rect x="23" y="31" width="1" height="1"/>
<rect x="28" y="31" width="3" height="1"/>
<rect x="41" y="31" width="1" height="1"/>
</g>
<g fill="#a4c3c4">
<rect x="11" y="19" width="3" height="1"/>
<rect x="11" y="20" width="2" height="1"/>
<rect x="38" y="20" width="2" height="1"/>
<rect x="10" y="21" width="2" height="1"/>
<rect x="37" y="21" width="2" height="1"/>
<rect x="40" y="21" width="2" height="1"/>
<rect x="10" y="22" width="1" height="1"/>
<rect x="40" y="22" width="1" height="1"/>
<rect x="10" y="23" width="1" height="1"/>
<rect x="16" y="23" width="5" height="1"/>
<rect x="42" y="23" width="1" height="1"/>
<rect x="10" y="24" width="1" height="1"/>
<rect x="14" y="24" width="1" height="1"/>
<rect x="18" y="24" width="2" height="1"/>
<rect x="44" y="24" width="1" height="1"/>
<rect x="11" y="25" width="2" height="1"/>
<rect x="16" y="25" width="1" height="1"/>
<rect x="22" y="25" width="1" height="1"/>
<rect x="44" y="25" width="1" height="1"/>
<rect x="15" y="26" width="1" height="1"/>
<rect x="21" y="26" width="1" height="1"/>
<rect x="36" y="26" width="1" height="1"/>
<rect x="38" y="26" width="4" height="1"/>
<rect x="44" y="26" width="1" height="1"/>
<rect x="14" y="27" width="1" height="1"/>
<rect x="19" y="27" width="2" height="1"/>
<rect x="26" y="27" width="1" height="1"/>
<rect x="37" y="27" width="1" height="1"/>
<rect x="42" y="27" width="2" height="1"/>
<rect x="14" y="28" width="4" height="1"/>
<rect x="20" y="28" width="1" height="1"/>
<rect x="25" y="29" width="1" height="1"/>
<rect x="27" y="29" width="1" height="1"/>
<rect x="42" y="31" width="1" height="1"/>
<rect x="22" y="32" width="2" height="1"/>
<rect x="22" y="33" width="2" height="1"/>
<rect x="21" y="34" width="3" height="1"/>
<rect x="21" y="35" width="3" height="1"/>
<rect x="22" y="36" width="1" height="1"/>
</g>
<g fill="#fbd37e">
<rect x="20" y="17" width="7" height="1"/>
<rect x="20" y="18" width="5" height="1"/>
<rect x="27" y="18" width="2" height="1"/>
<rect x="22" y="19" width="1" height="1"/>
<rect x="24" y="19" width="1" height="1"/>
<rect x="27" y="19" width="3" height="1"/>
<rect x="21" y="20" width="10" height="1"/>
<rect x="23" y="21" width="8" height="1"/>
<rect x="23" y="22" width="1" height="1"/>
<rect x="26" y="22" width="3" height="1"/>
<rect x="25" y="23" width="2" height="1"/>
<rect x="28" y="23" width="2" height="1"/>
</g>
<g fill="#c3fadc">
<rect x="21" y="13" width="1" height="1"/>
<rect x="25" y="13" width="1" height="1"/>
<rect x="11" y="14" width="3" height="1"/>
<rect x="21" y="14" width="1" height="1"/>
<rect x="28" y="14" width="1" height="1"/>
<rect x="10" y="15" width="1" height="1"/>
<rect x="14" y="15" width="1" height="1"/>
<rect x="17" y="15" width="1" height="1"/>
<rect x="21" y="15" width="2" height="1"/>
<rect x="28" y="15" width="1" height="1"/>
<rect x="14" y="16" width="2" height="1"/>
<rect x="22" y="16" width="1" height="1"/>
<rect x="28" y="16" width="1" height="1"/>
<rect x="14" y="17" width="4" height="1"/>
<rect x="12" y="18" width="1" height="1"/>
<rect x="15" y="18" width="4" height="1"/>
<rect x="14" y="20" width="4" height="1"/>
<rect x="13" y="21" width="3" height="1"/>
<rect x="13" y="22" width="1" height="1"/>
<rect x="17" y="22" width="3" height="1"/>
<rect x="35" y="22" width="5" height="1"/>
<rect x="36" y="23" width="6" height="1"/>
<rect x="37" y="24" width="7" height="1"/>
<rect x="23" y="25" width="3" height="1"/>
<rect x="42" y="25" width="2" height="1"/>
<rect x="22" y="26" width="4" height="1"/>
<rect x="28" y="26" width="2" height="1"/>
<rect x="21" y="27" width="5" height="1"/>
<rect x="28" y="27" width="3" height="1"/>
<rect x="21" y="28" width="1" height="1"/>
<rect x="25" y="28" width="1" height="1"/>
<rect x="28" y="28" width="4" height="1"/>
<rect x="33" y="28" width="1" height="1"/>
<rect x="29" y="29" width="1" height="1"/>
<rect x="32" y="29" width="1" height="1"/>
<rect x="34" y="29" width="2" height="1"/>
<rect x="40" y="29" width="1" height="1"/>
<rect x="35" y="30" width="4" height="1"/>
<rect x="41" y="30" width="1" height="1"/>
<rect x="32" y="31" width="2" height="1"/>
<rect x="37" y="31" width="3" height="1"/>
<rect x="33" y="32" width="1" height="1"/>
<rect x="39" y="32" width="4" height="1"/>
<rect x="41" y="33" width="2" height="1"/>
</g>
<g fill="#b3dfce">
<rect x="20" y="10" width="3" height="1"/>
<rect x="25" y="10" width="2" height="1"/>
<rect x="13" y="11" width="7" height="1"/>
<rect x="23" y="11" width="2" height="1"/>
<rect x="27" y="11" width="2" height="1"/>
<rect x="11" y="12" width="2" height="1"/>
<rect x="19" y="12" width="2" height="1"/>
<rect x="24" y="12" width="1" height="1"/>
<rect x="29" y="12" width="4" height="1"/>
<rect x="10" y="13" width="1" height="1"/>
<rect x="20" y="13" width="1" height="1"/>
<rect x="24" y="13" width="1" height="1"/>
<rect x="29" y="13" width="1" height="1"/>
<rect x="33" y="13" width="1" height="1"/>
<rect x="10" y="14" width="1" height="1"/>
<rect x="25" y="14" width="1" height="1"/>
<rect x="34" y="14" width="1" height="1"/>
<rect x="8" y="15" width="2" height="1"/>
<rect x="15" y="15" width="2" height="1"/>
<rect x="25" y="15" width="1" height="1"/>
<rect x="33" y="15" width="1" height="1"/>
<rect x="7" y="16" width="1" height="1"/>
<rect x="16" y="16" width="3" height="1"/>
<rect x="25" y="16" width="1" height="1"/>
<rect x="32" y="16" width="1" height="1"/>
<rect x="35" y="16" width="3" height="1"/>
<rect x="6" y="17" width="1" height="1"/>
<rect x="18" y="17" width="2" height="1"/>
<rect x="28" y="17" width="1" height="1"/>
<rect x="31" y="17" width="1" height="1"/>
<rect x="33" y="17" width="2" height="1"/>
<rect x="38" y="17" width="2" height="1"/>
<rect x="5" y="18" width="1" height="1"/>
<rect x="8" y="18" width="4" height="1"/>
<rect x="31" y="18" width="2" height="1"/>
<rect x="40" y="18" width="1" height="1"/>
<rect x="5" y="19" width="1" height="1"/>
<rect x="7" y="19" width="4" height="1"/>
<rect x="14" y="19" width="5" height="1"/>
<rect x="30" y="19" width="2" height="1"/>
<rect x="41" y="19" width="1" height="1"/>
<rect x="6" y="20" width="2" height="1"/>
<rect x="13" y="20" width="1" height="1"/>
<rect x="18" y="20" width="1" height="1"/>
<rect x="37" y="20" width="1" height="1"/>
<rect x="42" y="20" width="1" height="1"/>
<rect x="16" y="21" width="4" height="1"/>
<rect x="35" y="21" width="2" height="1"/>
<rect x="20" y="22" width="1" height="1"/>
<rect x="33" y="22" width="2" height="1"/>
<rect x="15" y="23" width="1" height="1"/>
<rect x="13" y="24" width="1" height="1"/>
<rect x="20" y="24" width="4" height="1"/>
<rect x="17" y="25" width="5" height="1"/>
<rect x="33" y="25" width="2" height="1"/>
<rect x="16" y="26" width="5" height="1"/>
<rect x="26" y="26" width="2" height="1"/>
<rect x="32" y="26" width="2" height="1"/>
<rect x="35" y="26" width="1" height="1"/>
<rect x="15" y="27" width="4" height="1"/>
<rect x="27" y="27" width="1" height="1"/>
<rect x="32" y="27" width="3" height="1"/>
<rect x="24" y="28" width="1" height="1"/>
<rect x="27" y="28" width="1" height="1"/>
<rect x="34" y="28" width="2" height="1"/>
<rect x="39" y="28" width="1" height="1"/>
<rect x="24" y="29" width="1" height="1"/>
<rect x="36" y="29" width="1" height="1"/>
<rect x="22" y="31" width="1" height="1"/>
<rect x="34" y="31" width="1" height="1"/>
<rect x="29" y="32" width="2" height="1"/>
<rect x="34" y="32" width="1" height="1"/>
<rect x="33" y="33" width="3" height="1"/>
</g>
<g fill="#c9c28d">
<rect x="19" y="18" width="1" height="1"/>
<rect x="21" y="19" width="1" height="1"/>
<rect x="20" y="21" width="3" height="1"/>
<rect x="31" y="21" width="1" height="1"/>
<rect x="24" y="22" width="2" height="1"/>
<rect x="29" y="22" width="4" height="1"/>
<rect x="23" y="23" width="2" height="1"/>
<rect x="27" y="23" width="1" height="1"/>
<rect x="30" y="23" width="3" height="1"/>
<rect x="24" y="24" width="2" height="1"/>
<rect x="28" y="24" width="5" height="1"/>
<rect x="28" y="25" width="5" height="1"/>
<rect x="30" y="26" width="2" height="1"/>
</g>
<g fill="#82a7a7">
<rect x="15" y="24" width="3" height="1"/>
<rect x="15" y="25" width="1" height="1"/>
<rect x="14" y="26" width="1" height="1"/>
<rect x="37" y="26" width="1" height="1"/>
<rect x="38" y="27" width="1" height="1"/>
<rect x="18" y="28" width="2" height="1"/>
<rect x="26" y="28" width="1" height="1"/>
<rect x="20" y="29" width="1" height="1"/>
<rect x="26" y="29" width="1" height="1"/>
<rect x="20" y="30" width="1" height="1"/>
<rect x="25" y="30" width="1" height="1"/>
<rect x="27" y="30" width="1" height="1"/>
<rect x="21" y="31" width="1" height="1"/>
<rect x="25" y="31" width="1" height="1"/>
<rect x="27" y="31" width="1" height="1"/>
<rect x="35" y="31" width="1" height="1"/>
<rect x="21" y="32" width="1" height="1"/>
<rect x="24" y="32" width="1" height="1"/>
<rect x="36" y="32" width="2" height="1"/>
<rect x="21" y="33" width="1" height="1"/>
<rect x="24" y="33" width="1" height="1"/>
<rect x="30" y="33" width="1" height="1"/>
<rect x="32" y="33" width="1" height="1"/>
<rect x="36" y="33" width="1" height="1"/>
<rect x="39" y="33" width="1" height="1"/>
<rect x="24" y="34" width="1" height="1"/>
<rect x="33" y="34" width="3" height="1"/>
<rect x="24" y="35" width="1" height="1"/>
<rect x="20" y="36" width="1" height="1"/>
<rect x="23" y="36" width="1" height="1"/>
<rect x="20" y="37" width="1" height="1"/>
<rect x="23" y="37" width="1" height="1"/>
<rect x="20" y="38" width="1" height="1"/>
<rect x="23" y="38" width="1" height="1"/>
<rect x="20" y="39" width="1" height="1"/>
<rect x="23" y="39" width="1" height="1"/>
<rect x="20" y="40" width="1" height="1"/>
<rect x="23" y="40" width="1" height="1"/>
</g>
<g fill="#94be96">
<rect x="19" y="19" width="2" height="1"/>
<rect x="19" y="20" width="2" height="1"/>
<rect x="21" y="22" width="2" height="1"/>
<rect x="21" y="23" width="2" height="1"/>
<rect x="26" y="24" width="2" height="1"/>
<rect x="26" y="25" width="2" height="1"/>
</g>
<g fill="#fae6ab">
<rect x="25" y="18" width="2" height="1"/>
<rect x="23" y="19" width="1" height="1"/>
<rect x="25" y="19" width="2" height="1"/>
</g>
<g fill="#a7cfcf">
<rect x="31" y="27" width="1" height="1"/>
<rect x="32" y="28" width="1" height="1"/>
<rect x="33" y="29" width="1" height="1"/>
<rect x="34" y="30" width="1" height="1"/>
<rect x="31" y="31" width="1" height="1"/>
<rect x="36" y="31" width="1" height="1"/>
<rect x="28" y="32" width="1" height="1"/>
<rect x="31" y="32" width="2" height="1"/>
<rect x="35" y="32" width="1" height="1"/>
<rect x="38" y="32" width="1" height="1"/>
<rect x="31" y="33" width="1" height="1"/>
<rect x="40" y="33" width="1" height="1"/>
</g>
<g fill="#bcda84">
<rect x="21" y="36" width="1" height="1"/>
<rect x="21" y="37" width="2" height="1"/>
<rect x="21" y="38" width="2" height="1"/>
<rect x="21" y="39" width="2" height="1"/>
<rect x="21" y="40" width="2" height="1"/>
</g>
<g fill="#f4fad8">
<rect x="23" y="12" width="1" height="1"/>
<rect x="11" y="13" width="2" height="1"/>
<rect x="22" y="14" width="1" height="1"/>
<rect x="26" y="14" width="1" height="1"/>
<rect x="32" y="14" width="1" height="1"/>
<rect x="18" y="15" width="1" height="1"/>
<rect x="26" y="15" width="1" height="1"/>
<rect x="8" y="16" width="2" height="1"/>
<rect x="13" y="16" width="1" height="1"/>
<rect x="26" y="16" width="1" height="1"/>
<rect x="13" y="17" width="1" height="1"/>
<rect x="27" y="17" width="1" height="1"/>
<rect x="29" y="17" width="1" height="1"/>
<rect x="35" y="17" width="1" height="1"/>
<rect x="6" y="18" width="1" height="1"/>
<rect x="13" y="18" width="2" height="1"/>
<rect x="29" y="18" width="2" height="1"/>
<rect x="35" y="18" width="1" height="1"/>
<rect x="6" y="19" width="1" height="1"/>
<rect x="36" y="20" width="1" height="1"/>
<rect x="14" y="22" width="1" height="1"/>
<rect x="34" y="24" width="1" height="1"/>
<rect x="35" y="25" width="1" height="1"/>
<rect x="37" y="25" width="1" height="1"/>
<rect x="41" y="25" width="1" height="1"/>
<rect x="34" y="26" width="1" height="1"/>
<rect x="42" y="26" width="1" height="1"/>
<rect x="22" y="28" width="1" height="1"/>
<rect x="21" y="29" width="1" height="1"/>
<rect x="23" y="29" width="1" height="1"/>
<rect x="28" y="29" width="1" height="1"/>
<rect x="31" y="29" width="1" height="1"/>
<rect x="39" y="29" width="1" height="1"/>
<rect x="21" y="30" width="1" height="1"/>
<rect x="31" y="30" width="1" height="1"/>
<rect x="39" y="30" width="2" height="1"/>
<rect x="24" y="31" width="1" height="1"/>
<rect x="40" y="31" width="1" height="1"/>
</g>
</g>
</svg>