<svg xmlns="http://www.w3.org/2000/svg"
 viewBox="0 0 64 64" width="640" height="640"
 role="img" aria-labelledby="title desc">
<title id="title">Pixelated cat with blue eyes and flower halo</title>
<desc id="desc">Crisp pixel-art cat with blue eyes, pink ears, coral nose and warm yellow flower petals on a transparent background.</desc>
<g shape-rendering="crispEdges">
<g fill="#08080c">
<rect x="45" y="6" width="1" height="1"/>
<rect x="44" y="7" width="3" height="1"/>
<rect x="18" y="8" width="2" height="1"/>
<rect x="42" y="8" width="3" height="1"/>
<rect x="46" y="8" width="1" height="1"/>
<rect x="17" y="9" width="5" height="1"/>
<rect x="41" y="9" width="4" height="1"/>
<rect x="46" y="9" width="2" height="1"/>
<rect x="16" y="10" width="3" height="1"/>
<rect x="21" y="10" width="2" height="1"/>
<rect x="40" y="10" width="4" height="1"/>
<rect x="46" y="10" width="2" height="1"/>
<rect x="15" y="11" width="2" height="1"/>
<rect x="21" y="11" width="3" height="1"/>
<rect x="39" y="11" width="4" height="1"/>
<rect x="47" y="11" width="2" height="1"/>
<rect x="15" y="12" width="2" height="1"/>
<rect x="22" y="12" width="3" height="1"/>
<rect x="38" y="12" width="5" height="1"/>
<rect x="47" y="12" width="2" height="1"/>
<rect x="15" y="13" width="2" height="1"/>
<rect x="22" y="13" width="4" height="1"/>
<rect x="37" y="13" width="7" height="1"/>
<rect x="47" y="13" width="2" height="1"/>
<rect x="14" y="14" width="3" height="1"/>
<rect x="23" y="14" width="4" height="1"/>
<rect x="30" y="14" width="5" height="1"/>
<rect x="36" y="14" width="7" height="1"/>
<rect x="47" y="14" width="2" height="1"/>
<rect x="14" y="15" width="2" height="1"/>
<rect x="23" y="15" width="5" height="1"/>
<rect x="29" y="15" width="1" height="1"/>
<rect x="31" y="15" width="14" height="1"/>
<rect x="47" y="15" width="2" height="1"/>
<rect x="14" y="16" width="2" height="1"/>
<rect x="24" y="16" width="22" height="1"/>
<rect x="47" y="16" width="2" height="1"/>
<rect x="14" y="17" width="2" height="1"/>
<rect x="22" y="17" width="24" height="1"/>
<rect x="47" y="17" width="2" height="1"/>
<rect x="14" y="18" width="2" height="1"/>
<rect x="21" y="18" width="28" height="1"/>
<rect x="14" y="19" width="2" height="1"/>
<rect x="20" y="19" width="29" height="1"/>
<rect x="14" y="20" width="2" height="1"/>
<rect x="19" y="20" width="18" height="1"/>
<rect x="40" y="20" width="9" height="1"/>
<rect x="14" y="21" width="2" height="1"/>
<rect x="18" y="21" width="17" height="1"/>
<rect x="41" y="21" width="9" height="1"/>
<rect x="14" y="22" width="3" height="1"/>
<rect x="18" y="22" width="18" height="1"/>
<rect x="42" y="22" width="9" height="1"/>
<rect x="15" y="23" width="16" height="1"/>
<rect x="32" y="23" width="4" height="1"/>
<rect x="42" y="23" width="10" height="1"/>
<rect x="15" y="24" width="15" height="1"/>
<rect x="33" y="24" width="2" height="1"/>
<rect x="42" y="24" width="2" height="1"/>
<rect x="46" y="24" width="4" height="1"/>
<rect x="51" y="24" width="1" height="1"/>
<rect x="14" y="25" width="15" height="1"/>
<rect x="34" y="25" width="1" height="1"/>
<rect x="44" y="25" width="2" height="1"/>
<rect x="48" y="25" width="4" height="1"/>
<rect x="14" y="26" width="14" height="1"/>
<rect x="31" y="26" width="2" height="1"/>
<rect x="44" y="26" width="3" height="1"/>
<rect x="49" y="26" width="4" height="1"/>
<rect x="13" y="27" width="1" height="1"/>
<rect x="15" y="27" width="12" height="1"/>
<rect x="31" y="27" width="3" height="1"/>
<rect x="43" y="27" width="4" height="1"/>
<rect x="49" y="27" width="4" height="1"/>
<rect x="13" y="28" width="14" height="1"/>
<rect x="30" y="28" width="5" height="1"/>
<rect x="43" y="28" width="1" height="1"/>
<rect x="45" y="28" width="2" height="1"/>
<rect x="49" y="28" width="2" height="1"/>
<rect x="12" y="29" width="1" height="1"/>
<rect x="14" y="29" width="13" height="1"/>
<rect x="30" y="29" width="3" height="1"/>
<rect x="34" y="29" width="1" height="1"/>
<rect x="43" y="29" width="3" height="1"/>
<rect x="48" y="29" width="6" height="1"/>
<rect x="12" y="30" width="16" height="1"/>
<rect x="31" y="30" width="4" height="1"/>
<rect x="44" y="30" width="2" height="1"/>
<rect x="48" y="30" width="6" height="1"/>
<rect x="12" y="31" width="10" height="1"/>
<rect x="23" y="31" width="5" height="1"/>
<rect x="31" y="31" width="3" height="1"/>
<rect x="47" y="31" width="1" height="1"/>
<rect x="50" y="31" width="4" height="1"/>
<rect x="12" y="32" width="7" height="1"/>
<rect x="22" y="32" width="7" height="1"/>
<rect x="12" y="33" width="11" height="1"/>
<rect x="24" y="33" width="6" height="1"/>
<rect x="12" y="34" width="2" height="1"/>
<rect x="23" y="34" width="5" height="1"/>
<rect x="12" y="35" width="14" height="1"/>
<rect x="12" y="36" width="5" height="1"/>
<rect x="22" y="36" width="3" height="1"/>
<rect x="13" y="37" width="1" height="1"/>
<rect x="15" y="37" width="8" height="1"/>
<rect x="14" y="38" width="5" height="1"/>
<rect x="15" y="39" width="1" height="1"/>
<rect x="17" y="39" width="3" height="1"/>
<rect x="16" y="40" width="2" height="1"/>
<rect x="10" y="43" width="1" height="1"/>
<rect x="8" y="44" width="3" height="1"/>
<rect x="8" y="45" width="3" height="1"/>
<rect x="8" y="46" width="4" height="1"/>
<rect x="6" y="47" width="6" height="1"/>
<rect x="5" y="48" width="8" height="1"/>
<rect x="5" y="49" width="8" height="1"/>
<rect x="3" y="50" width="11" height="1"/>
<rect x="3" y="51" width="12" height="1"/>
<rect x="3" y="52" width="15" height="1"/>
<rect x="3" y="53" width="15" height="1"/>
<rect x="3" y="54" width="16" height="1"/>
<rect x="3" y="55" width="16" height="1"/>
<rect x="3" y="56" width="17" height="1"/>
<rect x="3" y="57" width="18" height="1"/>
<rect x="3" y="58" width="18" height="1"/>
<rect x="3" y="59" width="19" height="1"/>
<rect x="3" y="60" width="20" height="1"/>
<rect x="3" y="61" width="20" height="1"/>
<rect x="3" y="62" width="21" height="1"/>
</g>
<g fill="#232731">
<rect x="19" y="10" width="2" height="1"/>
<rect x="24" y="11" width="1" height="1"/>
<rect x="30" y="15" width="1" height="1"/>
<rect x="22" y="16" width="1" height="1"/>
<rect x="31" y="23" width="1" height="1"/>
<rect x="50" y="24" width="1" height="1"/>
<rect x="14" y="27" width="1" height="1"/>
<rect x="13" y="29" width="1" height="1"/>
<rect x="51" y="32" width="1" height="1"/>
<rect x="54" y="32" width="1" height="1"/>
<rect x="14" y="37" width="1" height="1"/>
<rect x="16" y="39" width="1" height="1"/>
</g>
<g fill="#f0dfc0">
<rect x="37" y="20" width="2" height="1"/>
<rect x="36" y="21" width="3" height="1"/>
<rect x="36" y="22" width="6" height="1"/>
<rect x="36" y="23" width="6" height="1"/>
<rect x="35" y="24" width="7" height="1"/>
<rect x="35" y="25" width="8" height="1"/>
<rect x="35" y="26" width="4" height="1"/>
<rect x="40" y="26" width="3" height="1"/>
<rect x="35" y="27" width="8" height="1"/>
<rect x="35" y="28" width="8" height="1"/>
<rect x="44" y="28" width="1" height="1"/>
<rect x="51" y="28" width="2" height="1"/>
<rect x="33" y="29" width="1" height="1"/>
<rect x="35" y="29" width="8" height="1"/>
<rect x="35" y="30" width="5" height="1"/>
<rect x="22" y="31" width="1" height="1"/>
<rect x="34" y="31" width="5" height="1"/>
<rect x="44" y="31" width="1" height="1"/>
<rect x="19" y="32" width="3" height="1"/>
<rect x="34" y="32" width="5" height="1"/>
<rect x="43" y="32" width="2" height="1"/>
<rect x="52" y="32" width="2" height="1"/>
<rect x="23" y="33" width="1" height="1"/>
<rect x="31" y="33" width="10" height="1"/>
<rect x="42" y="33" width="3" height="1"/>
<rect x="50" y="33" width="4" height="1"/>
<rect x="14" y="34" width="9" height="1"/>
<rect x="33" y="34" width="7" height="1"/>
<rect x="41" y="34" width="1" height="1"/>
<rect x="43" y="34" width="11" height="1"/>
<rect x="27" y="35" width="1" height="1"/>
<rect x="32" y="35" width="11" height="1"/>
<rect x="44" y="35" width="9" height="1"/>
<rect x="17" y="36" width="5" height="1"/>
<rect x="25" y="36" width="4" height="1"/>
<rect x="31" y="36" width="7" height="1"/>
<rect x="40" y="36" width="12" height="1"/>
<rect x="23" y="37" width="29" height="1"/>
<rect x="19" y="38" width="33" height="1"/>
<rect x="20" y="39" width="32" height="1"/>
<rect x="20" y="40" width="9" height="1"/>
<rect x="30" y="40" width="3" height="1"/>
<rect x="34" y="40" width="5" height="1"/>
<rect x="40" y="40" width="5" height="1"/>
<rect x="46" y="40" width="3" height="1"/>
<rect x="21" y="41" width="27" height="1"/>
<rect x="24" y="42" width="15" height="1"/>
<rect x="40" y="42" width="7" height="1"/>
<rect x="25" y="43" width="20" height="1"/>
<rect x="27" y="44" width="8" height="1"/>
<rect x="30" y="45" width="3" height="1"/>
<rect x="30" y="46" width="2" height="1"/>
<rect x="46" y="52" width="4" height="1"/>
<rect x="46" y="53" width="5" height="1"/>
<rect x="21" y="54" width="1" height="1"/>
<rect x="25" y="54" width="1" height="1"/>
<rect x="43" y="54" width="8" height="1"/>
<rect x="29" y="55" width="2" height="1"/>
<rect x="32" y="55" width="1" height="1"/>
<rect x="42" y="55" width="3" height="1"/>
<rect x="46" y="55" width="6" height="1"/>
<rect x="28" y="56" width="8" height="1"/>
<rect x="40" y="56" width="10" height="1"/>
<rect x="29" y="57" width="10" height="1"/>
<rect x="40" y="57" width="10" height="1"/>
<rect x="30" y="58" width="3" height="1"/>
<rect x="34" y="58" width="5" height="1"/>
<rect x="40" y="58" width="5" height="1"/>
<rect x="46" y="58" width="3" height="1"/>
<rect x="30" y="59" width="20" height="1"/>
<rect x="30" y="60" width="1" height="1"/>
<rect x="32" y="60" width="1" height="1"/>
<rect x="34" y="60" width="5" height="1"/>
<rect x="40" y="60" width="4" height="1"/>
<rect x="46" y="60" width="3" height="1"/>
<rect x="32" y="61" width="11" height="1"/>
<rect x="45" y="61" width="3" height="1"/>
<rect x="34" y="62" width="5" height="1"/>
<rect x="40" y="62" width="1" height="1"/>
<rect x="44" y="62" width="4" height="1"/>
</g>
<g fill="#ffe2d3">
<rect x="31" y="4" width="1" height="1"/>
<rect x="39" y="20" width="1" height="1"/>
<rect x="35" y="21" width="1" height="1"/>
<rect x="39" y="21" width="2" height="1"/>
<rect x="39" y="26" width="1" height="1"/>
<rect x="39" y="31" width="1" height="1"/>
<rect x="39" y="32" width="1" height="1"/>
<rect x="45" y="32" width="1" height="1"/>
<rect x="45" y="33" width="1" height="1"/>
<rect x="53" y="35" width="1" height="1"/>
<rect x="38" y="36" width="2" height="1"/>
<rect x="52" y="36" width="1" height="1"/>
<rect x="52" y="37" width="1" height="1"/>
<rect x="18" y="40" width="2" height="1"/>
<rect x="29" y="40" width="1" height="1"/>
<rect x="33" y="40" width="1" height="1"/>
<rect x="39" y="40" width="1" height="1"/>
<rect x="45" y="40" width="1" height="1"/>
<rect x="49" y="40" width="1" height="1"/>
<rect x="20" y="41" width="1" height="1"/>
<rect x="48" y="41" width="1" height="1"/>
<rect x="21" y="42" width="3" height="1"/>
<rect x="39" y="42" width="1" height="1"/>
<rect x="24" y="43" width="1" height="1"/>
<rect x="26" y="44" width="1" height="1"/>
<rect x="35" y="44" width="5" height="1"/>
<rect x="27" y="45" width="3" height="1"/>
<rect x="33" y="45" width="1" height="1"/>
<rect x="36" y="45" width="2" height="1"/>
<rect x="29" y="46" width="1" height="1"/>
<rect x="46" y="51" width="1" height="1"/>
<rect x="28" y="52" width="2" height="1"/>
<rect x="27" y="53" width="3" height="1"/>
<rect x="45" y="53" width="1" height="1"/>
<rect x="19" y="54" width="2" height="1"/>
<rect x="26" y="54" width="5" height="1"/>
<rect x="19" y="55" width="10" height="1"/>
<rect x="31" y="55" width="1" height="1"/>
<rect x="45" y="55" width="1" height="1"/>
<rect x="20" y="56" width="8" height="1"/>
<rect x="50" y="56" width="1" height="1"/>
<rect x="21" y="57" width="8" height="1"/>
<rect x="39" y="57" width="1" height="1"/>
<rect x="50" y="57" width="1" height="1"/>
<rect x="21" y="58" width="9" height="1"/>
<rect x="33" y="58" width="1" height="1"/>
<rect x="39" y="58" width="1" height="1"/>
<rect x="45" y="58" width="1" height="1"/>
<rect x="22" y="59" width="8" height="1"/>
<rect x="23" y="60" width="7" height="1"/>
<rect x="31" y="60" width="1" height="1"/>
<rect x="33" y="60" width="1" height="1"/>
<rect x="39" y="60" width="1" height="1"/>
<rect x="44" y="60" width="2" height="1"/>
<rect x="23" y="61" width="9" height="1"/>
<rect x="43" y="61" width="2" height="1"/>
<rect x="48" y="61" width="1" height="1"/>
<rect x="24" y="62" width="10" height="1"/>
<rect x="39" y="62" width="1" height="1"/>
<rect x="41" y="62" width="3" height="1"/>
<rect x="48" y="62" width="2" height="1"/>
</g>
<g fill="#64b2ee">
<rect x="30" y="24" width="3" height="1"/>
<rect x="44" y="24" width="2" height="1"/>
<rect x="29" y="25" width="5" height="1"/>
<rect x="43" y="25" width="1" height="1"/>
<rect x="46" y="25" width="2" height="1"/>
<rect x="28" y="26" width="2" height="1"/>
<rect x="33" y="26" width="2" height="1"/>
<rect x="43" y="26" width="1" height="1"/>
<rect x="47" y="26" width="2" height="1"/>
<rect x="27" y="27" width="4" height="1"/>
<rect x="34" y="27" width="1" height="1"/>
<rect x="47" y="27" width="2" height="1"/>
<rect x="27" y="28" width="3" height="1"/>
<rect x="47" y="28" width="2" height="1"/>
<rect x="27" y="29" width="3" height="1"/>
<rect x="47" y="29" width="1" height="1"/>
<rect x="28" y="30" width="2" height="1"/>
<rect x="46" y="30" width="2" height="1"/>
<rect x="28" y="31" width="2" height="1"/>
<rect x="46" y="31" width="1" height="1"/>
<rect x="30" y="32" width="1" height="1"/>
<rect x="33" y="32" width="1" height="1"/>
</g>
<g fill="#1c3049">
<rect x="30" y="26" width="1" height="1"/>
<rect x="46" y="29" width="1" height="1"/>
<rect x="30" y="30" width="1" height="1"/>
<rect x="30" y="31" width="1" height="1"/>
<rect x="45" y="31" width="1" height="1"/>
<rect x="29" y="32" width="1" height="1"/>
<rect x="31" y="32" width="2" height="1"/>
<rect x="26" y="35" width="1" height="1"/>
<rect x="7" y="46" width="1" height="1"/>
<rect x="4" y="49" width="1" height="1"/>
</g>
<g fill="#ff7567">
<rect x="45" y="8" width="1" height="1"/>
<rect x="45" y="9" width="1" height="1"/>
<rect x="44" y="10" width="2" height="1"/>
<rect x="17" y="11" width="4" height="1"/>
<rect x="43" y="11" width="4" height="1"/>
<rect x="17" y="12" width="5" height="1"/>
<rect x="43" y="12" width="4" height="1"/>
<rect x="17" y="13" width="5" height="1"/>
<rect x="44" y="13" width="3" height="1"/>
<rect x="17" y="14" width="6" height="1"/>
<rect x="43" y="14" width="4" height="1"/>
<rect x="16" y="15" width="7" height="1"/>
<rect x="45" y="15" width="2" height="1"/>
<rect x="16" y="16" width="6" height="1"/>
<rect x="23" y="16" width="1" height="1"/>
<rect x="46" y="16" width="1" height="1"/>
<rect x="16" y="17" width="6" height="1"/>
<rect x="46" y="17" width="1" height="1"/>
<rect x="16" y="18" width="5" height="1"/>
<rect x="16" y="19" width="4" height="1"/>
<rect x="16" y="20" width="3" height="1"/>
<rect x="16" y="21" width="2" height="1"/>
<rect x="54" y="21" width="1" height="1"/>
<rect x="8" y="22" width="2" height="1"/>
<rect x="17" y="22" width="1" height="1"/>
<rect x="8" y="23" width="1" height="1"/>
<rect x="59" y="26" width="1" height="1"/>
<rect x="60" y="27" width="1" height="1"/>
<rect x="60" y="28" width="2" height="1"/>
<rect x="61" y="29" width="1" height="1"/>
<rect x="40" y="30" width="4" height="1"/>
<rect x="61" y="30" width="1" height="1"/>
<rect x="40" y="31" width="4" height="1"/>
<rect x="61" y="31" width="1" height="1"/>
<rect x="4" y="32" width="1" height="1"/>
<rect x="40" y="32" width="2" height="1"/>
<rect x="60" y="32" width="2" height="1"/>
<rect x="3" y="33" width="2" height="1"/>
<rect x="41" y="33" width="1" height="1"/>
<rect x="60" y="33" width="1" height="1"/>
<rect x="4" y="34" width="2" height="1"/>
<rect x="40" y="34" width="1" height="1"/>
<rect x="42" y="34" width="1" height="1"/>
<rect x="59" y="34" width="2" height="1"/>
<rect x="4" y="35" width="2" height="1"/>
<rect x="43" y="35" width="1" height="1"/>
<rect x="58" y="35" width="3" height="1"/>
<rect x="4" y="36" width="3" height="1"/>
<rect x="57" y="36" width="3" height="1"/>
<rect x="5" y="37" width="3" height="1"/>
<rect x="56" y="37" width="2" height="1"/>
<rect x="6" y="38" width="4" height="1"/>
<rect x="57" y="38" width="1" height="1"/>
<rect x="7" y="39" width="5" height="1"/>
<rect x="8" y="40" width="5" height="1"/>
<rect x="58" y="40" width="1" height="1"/>
<rect x="11" y="41" width="1" height="1"/>
<rect x="58" y="41" width="2" height="1"/>
<rect x="11" y="42" width="1" height="1"/>
<rect x="58" y="42" width="2" height="1"/>
<rect x="11" y="43" width="1" height="1"/>
<rect x="59" y="43" width="1" height="1"/>
<rect x="11" y="44" width="1" height="1"/>
<rect x="58" y="44" width="2" height="1"/>
<rect x="11" y="45" width="2" height="1"/>
<rect x="58" y="45" width="2" height="1"/>
<rect x="12" y="46" width="1" height="1"/>
<rect x="58" y="46" width="2" height="1"/>
<rect x="12" y="47" width="2" height="1"/>
<rect x="58" y="47" width="1" height="1"/>
<rect x="13" y="48" width="1" height="1"/>
<rect x="46" y="48" width="1" height="1"/>
<rect x="56" y="48" width="2" height="1"/>
<rect x="13" y="49" width="2" height="1"/>
<rect x="46" y="49" width="1" height="1"/>
<rect x="48" y="49" width="3" height="1"/>
<rect x="53" y="49" width="5" height="1"/>
<rect x="14" y="50" width="3" height="1"/>
<rect x="45" y="50" width="11" height="1"/>
<rect x="15" y="51" width="4" height="1"/>
<rect x="28" y="51" width="2" height="1"/>
<rect x="45" y="51" width="1" height="1"/>
<rect x="47" y="51" width="8" height="1"/>
<rect x="18" y="52" width="10" height="1"/>
<rect x="30" y="52" width="3" height="1"/>
<rect x="41" y="52" width="1" height="1"/>
<rect x="43" y="52" width="3" height="1"/>
<rect x="18" y="53" width="9" height="1"/>
<rect x="30" y="53" width="4" height="1"/>
<rect x="40" y="53" width="5" height="1"/>
<rect x="22" y="54" width="3" height="1"/>
<rect x="31" y="54" width="7" height="1"/>
<rect x="40" y="54" width="3" height="1"/>
<rect x="33" y="55" width="9" height="1"/>
<rect x="36" y="56" width="4" height="1"/>
</g>
<g fill="#ffb0ab">
<rect x="31" y="5" width="1" height="1"/>
<rect x="3" y="28" width="1" height="1"/>
<rect x="48" y="31" width="2" height="1"/>
<rect x="3" y="32" width="1" height="1"/>
<rect x="42" y="32" width="1" height="1"/>
<rect x="46" y="32" width="5" height="1"/>
<rect x="30" y="33" width="1" height="1"/>
<rect x="46" y="33" width="4" height="1"/>
<rect x="28" y="34" width="5" height="1"/>
<rect x="28" y="35" width="4" height="1"/>
<rect x="29" y="36" width="2" height="1"/>
<rect x="45" y="43" width="1" height="1"/>
<rect x="50" y="52" width="1" height="1"/>
<rect x="51" y="53" width="1" height="1"/>
<rect x="51" y="54" width="1" height="1"/>
<rect x="51" y="56" width="1" height="1"/>
<rect x="51" y="57" width="1" height="1"/>
<rect x="49" y="58" width="2" height="1"/>
<rect x="50" y="59" width="1" height="1"/>
<rect x="49" y="60" width="2" height="1"/>
<rect x="49" y="61" width="1" height="1"/>
<rect x="50" y="62" width="1" height="1"/>
</g>
<g fill="#ffc436">
<rect x="20" y="2" width="2" height="1"/>
<rect x="23" y="2" width="1" height="1"/>
<rect x="33" y="2" width="1" height="1"/>
<rect x="36" y="2" width="2" height="1"/>
<rect x="39" y="2" width="1" height="1"/>
<rect x="19" y="3" width="1" height="1"/>
<rect x="24" y="3" width="1" height="1"/>
<rect x="26" y="3" width="1" height="1"/>
<rect x="34" y="3" width="2" height="1"/>
<rect x="37" y="3" width="1" height="1"/>
<rect x="40" y="3" width="1" height="1"/>
<rect x="42" y="3" width="1" height="1"/>
<rect x="19" y="4" width="2" height="1"/>
<rect x="26" y="4" width="2" height="1"/>
<rect x="33" y="4" width="3" height="1"/>
<rect x="37" y="4" width="2" height="1"/>
<rect x="40" y="4" width="2" height="1"/>
<rect x="43" y="4" width="2" height="1"/>
<rect x="17" y="5" width="1" height="1"/>
<rect x="20" y="5" width="2" height="1"/>
<rect x="27" y="5" width="1" height="1"/>
<rect x="29" y="5" width="1" height="1"/>
<rect x="33" y="5" width="3" height="1"/>
<rect x="44" y="5" width="1" height="1"/>
<rect x="17" y="6" width="5" height="1"/>
<rect x="28" y="6" width="1" height="1"/>
<rect x="34" y="6" width="1" height="1"/>
<rect x="44" y="6" width="1" height="1"/>
<rect x="18" y="7" width="1" height="1"/>
<rect x="20" y="7" width="1" height="1"/>
<rect x="29" y="7" width="2" height="1"/>
<rect x="40" y="7" width="1" height="1"/>
<rect x="12" y="8" width="3" height="1"/>
<rect x="22" y="8" width="1" height="1"/>
<rect x="38" y="8" width="2" height="1"/>
<rect x="11" y="9" width="2" height="1"/>
<rect x="15" y="9" width="1" height="1"/>
<rect x="23" y="9" width="1" height="1"/>
<rect x="30" y="9" width="2" height="1"/>
<rect x="38" y="9" width="2" height="1"/>
<rect x="48" y="9" width="1" height="1"/>
<rect x="52" y="9" width="1" height="1"/>
<rect x="9" y="10" width="5" height="1"/>
<rect x="24" y="10" width="1" height="1"/>
<rect x="31" y="10" width="1" height="1"/>
<rect x="37" y="10" width="2" height="1"/>
<rect x="51" y="10" width="1" height="1"/>
<rect x="53" y="10" width="1" height="1"/>
<rect x="8" y="11" width="7" height="1"/>
<rect x="25" y="11" width="1" height="1"/>
<rect x="31" y="11" width="1" height="1"/>
<rect x="36" y="11" width="1" height="1"/>
<rect x="49" y="11" width="2" height="1"/>
<rect x="52" y="11" width="3" height="1"/>
<rect x="7" y="12" width="2" height="1"/>
<rect x="11" y="12" width="1" height="1"/>
<rect x="13" y="12" width="1" height="1"/>
<rect x="27" y="12" width="1" height="1"/>
<rect x="29" y="12" width="1" height="1"/>
<rect x="31" y="12" width="1" height="1"/>
<rect x="36" y="12" width="2" height="1"/>
<rect x="49" y="12" width="2" height="1"/>
<rect x="52" y="12" width="3" height="1"/>
<rect x="7" y="13" width="3" height="1"/>
<rect x="28" y="13" width="1" height="1"/>
<rect x="31" y="13" width="1" height="1"/>
<rect x="35" y="13" width="2" height="1"/>
<rect x="49" y="13" width="2" height="1"/>
<rect x="52" y="13" width="1" height="1"/>
<rect x="6" y="14" width="4" height="1"/>
<rect x="28" y="14" width="1" height="1"/>
<rect x="49" y="14" width="2" height="1"/>
<rect x="52" y="14" width="1" height="1"/>
<rect x="57" y="14" width="1" height="1"/>
<rect x="6" y="15" width="1" height="1"/>
<rect x="8" y="15" width="2" height="1"/>
<rect x="49" y="15" width="1" height="1"/>
<rect x="51" y="15" width="1" height="1"/>
<rect x="53" y="15" width="1" height="1"/>
<rect x="57" y="15" width="1" height="1"/>
<rect x="6" y="16" width="1" height="1"/>
<rect x="8" y="16" width="1" height="1"/>
<rect x="11" y="16" width="2" height="1"/>
<rect x="50" y="16" width="2" height="1"/>
<rect x="56" y="16" width="2" height="1"/>
<rect x="6" y="17" width="6" height="1"/>
<rect x="13" y="17" width="1" height="1"/>
<rect x="56" y="17" width="1" height="1"/>
<rect x="7" y="18" width="1" height="1"/>
<rect x="9" y="18" width="5" height="1"/>
<rect x="50" y="18" width="1" height="1"/>
<rect x="55" y="18" width="2" height="1"/>
<rect x="7" y="19" width="1" height="1"/>
<rect x="10" y="19" width="4" height="1"/>
<rect x="54" y="19" width="3" height="1"/>
<rect x="12" y="20" width="2" height="1"/>
<rect x="54" y="20" width="2" height="1"/>
<rect x="13" y="21" width="1" height="1"/>
<rect x="10" y="22" width="1" height="1"/>
<rect x="52" y="23" width="5" height="1"/>
<rect x="8" y="24" width="2" height="1"/>
<rect x="11" y="24" width="1" height="1"/>
<rect x="13" y="24" width="1" height="1"/>
<rect x="7" y="25" width="3" height="1"/>
<rect x="55" y="25" width="2" height="1"/>
<rect x="6" y="26" width="2" height="1"/>
<rect x="9" y="26" width="1" height="1"/>
<rect x="54" y="26" width="3" height="1"/>
<rect x="6" y="27" width="2" height="1"/>
<rect x="10" y="27" width="1" height="1"/>
<rect x="12" y="27" width="1" height="1"/>
<rect x="56" y="27" width="2" height="1"/>
<rect x="4" y="28" width="1" height="1"/>
<rect x="8" y="28" width="1" height="1"/>
<rect x="10" y="28" width="1" height="1"/>
<rect x="57" y="28" width="1" height="1"/>
<rect x="3" y="29" width="1" height="1"/>
<rect x="9" y="29" width="2" height="1"/>
<rect x="57" y="29" width="2" height="1"/>
<rect x="6" y="30" width="1" height="1"/>
<rect x="9" y="30" width="1" height="1"/>
<rect x="54" y="30" width="1" height="1"/>
<rect x="56" y="30" width="1" height="1"/>
<rect x="58" y="30" width="1" height="1"/>
<rect x="3" y="31" width="1" height="1"/>
<rect x="8" y="31" width="3" height="1"/>
<rect x="55" y="31" width="2" height="1"/>
<rect x="58" y="31" width="1" height="1"/>
<rect x="8" y="32" width="1" height="1"/>
<rect x="5" y="33" width="1" height="1"/>
<rect x="8" y="33" width="2" height="1"/>
<rect x="55" y="33" width="1" height="1"/>
<rect x="58" y="33" width="2" height="1"/>
<rect x="6" y="34" width="1" height="1"/>
<rect x="9" y="34" width="1" height="1"/>
<rect x="55" y="34" width="1" height="1"/>
<rect x="6" y="35" width="1" height="1"/>
<rect x="55" y="35" width="1" height="1"/>
<rect x="11" y="36" width="1" height="1"/>
<rect x="11" y="37" width="2" height="1"/>
<rect x="54" y="38" width="2" height="1"/>
<rect x="53" y="39" width="1" height="1"/>
<rect x="52" y="40" width="3" height="1"/>
<rect x="16" y="41" width="1" height="1"/>
<rect x="55" y="41" width="1" height="1"/>
<rect x="50" y="42" width="1" height="1"/>
<rect x="56" y="42" width="1" height="1"/>
<rect x="18" y="43" width="3" height="1"/>
<rect x="48" y="43" width="2" height="1"/>
<rect x="51" y="43" width="2" height="1"/>
<rect x="17" y="44" width="3" height="1"/>
<rect x="47" y="44" width="1" height="1"/>
<rect x="50" y="44" width="2" height="1"/>
<rect x="17" y="45" width="1" height="1"/>
<rect x="25" y="45" width="1" height="1"/>
<rect x="40" y="45" width="1" height="1"/>
<rect x="44" y="45" width="1" height="1"/>
<rect x="46" y="45" width="1" height="1"/>
<rect x="17" y="46" width="1" height="1"/>
<rect x="20" y="46" width="3" height="1"/>
<rect x="24" y="46" width="1" height="1"/>
<rect x="34" y="46" width="1" height="1"/>
<rect x="41" y="46" width="1" height="1"/>
<rect x="43" y="46" width="1" height="1"/>
<rect x="47" y="46" width="1" height="1"/>
<rect x="49" y="46" width="1" height="1"/>
<rect x="19" y="47" width="1" height="1"/>
<rect x="24" y="47" width="1" height="1"/>
<rect x="26" y="47" width="1" height="1"/>
<rect x="37" y="47" width="1" height="1"/>
<rect x="42" y="47" width="2" height="1"/>
<rect x="48" y="47" width="3" height="1"/>
<rect x="18" y="48" width="1" height="1"/>
<rect x="22" y="48" width="1" height="1"/>
<rect x="34" y="48" width="4" height="1"/>
<rect x="39" y="48" width="2" height="1"/>
<rect x="42" y="48" width="1" height="1"/>
<rect x="44" y="48" width="2" height="1"/>
<rect x="49" y="48" width="1" height="1"/>
<rect x="51" y="48" width="2" height="1"/>
<rect x="19" y="49" width="1" height="1"/>
<rect x="22" y="49" width="2" height="1"/>
<rect x="34" y="49" width="1" height="1"/>
<rect x="36" y="49" width="5" height="1"/>
<rect x="42" y="49" width="4" height="1"/>
<rect x="51" y="49" width="2" height="1"/>
<rect x="17" y="50" width="2" height="1"/>
<rect x="23" y="50" width="1" height="1"/>
<rect x="26" y="50" width="1" height="1"/>
<rect x="34" y="50" width="2" height="1"/>
<rect x="38" y="50" width="3" height="1"/>
<rect x="33" y="51" width="3" height="1"/>
<rect x="39" y="51" width="3" height="1"/>
<rect x="44" y="51" width="1" height="1"/>
<rect x="36" y="52" width="1" height="1"/>
<rect x="40" y="52" width="1" height="1"/>
<rect x="38" y="54" width="2" height="1"/>
</g>
<g fill="#ffa512">
<rect x="20" y="1" width="5" height="1"/>
<rect x="35" y="1" width="6" height="1"/>
<rect x="18" y="2" width="2" height="1"/>
<rect x="24" y="2" width="4" height="1"/>
<rect x="34" y="2" width="2" height="1"/>
<rect x="41" y="2" width="2" height="1"/>
<rect x="25" y="3" width="1" height="1"/>
<rect x="28" y="3" width="1" height="1"/>
<rect x="33" y="3" width="1" height="1"/>
<rect x="43" y="3" width="2" height="1"/>
<rect x="17" y="4" width="1" height="1"/>
<rect x="25" y="4" width="1" height="1"/>
<rect x="29" y="4" width="1" height="1"/>
<rect x="32" y="4" width="1" height="1"/>
<rect x="39" y="4" width="1" height="1"/>
<rect x="45" y="4" width="1" height="1"/>
<rect x="16" y="5" width="1" height="1"/>
<rect x="22" y="5" width="1" height="1"/>
<rect x="26" y="5" width="1" height="1"/>
<rect x="30" y="5" width="1" height="1"/>
<rect x="32" y="5" width="1" height="1"/>
<rect x="36" y="5" width="1" height="1"/>
<rect x="41" y="5" width="2" height="1"/>
<rect x="16" y="6" width="1" height="1"/>
<rect x="22" y="6" width="2" height="1"/>
<rect x="27" y="6" width="1" height="1"/>
<rect x="31" y="6" width="3" height="1"/>
<rect x="35" y="6" width="1" height="1"/>
<rect x="42" y="6" width="2" height="1"/>
<rect x="46" y="6" width="2" height="1"/>
<rect x="12" y="7" width="5" height="1"/>
<rect x="23" y="7" width="2" height="1"/>
<rect x="28" y="7" width="1" height="1"/>
<rect x="31" y="7" width="4" height="1"/>
<rect x="43" y="7" width="1" height="1"/>
<rect x="47" y="7" width="3" height="1"/>
<rect x="11" y="8" width="1" height="1"/>
<rect x="16" y="8" width="2" height="1"/>
<rect x="24" y="8" width="1" height="1"/>
<rect x="28" y="8" width="2" height="1"/>
<rect x="31" y="8" width="4" height="1"/>
<rect x="50" y="8" width="3" height="1"/>
<rect x="9" y="9" width="2" height="1"/>
<rect x="24" y="9" width="1" height="1"/>
<rect x="29" y="9" width="1" height="1"/>
<rect x="32" y="9" width="2" height="1"/>
<rect x="53" y="9" width="1" height="1"/>
<rect x="8" y="10" width="1" height="1"/>
<rect x="29" y="10" width="1" height="1"/>
<rect x="32" y="10" width="2" height="1"/>
<rect x="54" y="10" width="1" height="1"/>
<rect x="7" y="11" width="1" height="1"/>
<rect x="30" y="11" width="1" height="1"/>
<rect x="32" y="11" width="2" height="1"/>
<rect x="56" y="11" width="1" height="1"/>
<rect x="6" y="12" width="1" height="1"/>
<rect x="10" y="12" width="1" height="1"/>
<rect x="25" y="12" width="2" height="1"/>
<rect x="30" y="12" width="1" height="1"/>
<rect x="32" y="12" width="2" height="1"/>
<rect x="57" y="12" width="1" height="1"/>
<rect x="6" y="13" width="1" height="1"/>
<rect x="10" y="13" width="3" height="1"/>
<rect x="26" y="13" width="2" height="1"/>
<rect x="30" y="13" width="1" height="1"/>
<rect x="32" y="13" width="2" height="1"/>
<rect x="51" y="13" width="1" height="1"/>
<rect x="57" y="13" width="1" height="1"/>
<rect x="5" y="14" width="1" height="1"/>
<rect x="11" y="14" width="2" height="1"/>
<rect x="27" y="14" width="1" height="1"/>
<rect x="29" y="14" width="1" height="1"/>
<rect x="51" y="14" width="1" height="1"/>
<rect x="5" y="15" width="1" height="1"/>
<rect x="12" y="15" width="2" height="1"/>
<rect x="28" y="15" width="1" height="1"/>
<rect x="50" y="15" width="1" height="1"/>
<rect x="5" y="16" width="1" height="1"/>
<rect x="13" y="16" width="1" height="1"/>
<rect x="49" y="16" width="1" height="1"/>
<rect x="52" y="16" width="1" height="1"/>
<rect x="5" y="17" width="1" height="1"/>
<rect x="49" y="17" width="1" height="1"/>
<rect x="52" y="17" width="1" height="1"/>
<rect x="57" y="17" width="1" height="1"/>
<rect x="6" y="18" width="1" height="1"/>
<rect x="49" y="18" width="1" height="1"/>
<rect x="51" y="18" width="1" height="1"/>
<rect x="57" y="18" width="1" height="1"/>
<rect x="6" y="19" width="1" height="1"/>
<rect x="49" y="19" width="3" height="1"/>
<rect x="57" y="19" width="1" height="1"/>
<rect x="7" y="20" width="1" height="1"/>
<rect x="49" y="20" width="2" height="1"/>
<rect x="56" y="20" width="1" height="1"/>
<rect x="7" y="21" width="1" height="1"/>
<rect x="50" y="21" width="1" height="1"/>
<rect x="52" y="21" width="2" height="1"/>
<rect x="51" y="22" width="2" height="1"/>
<rect x="55" y="22" width="2" height="1"/>
<rect x="9" y="23" width="4" height="1"/>
<rect x="57" y="23" width="1" height="1"/>
<rect x="7" y="24" width="1" height="1"/>
<rect x="6" y="25" width="1" height="1"/>
<rect x="11" y="25" width="3" height="1"/>
<rect x="52" y="25" width="1" height="1"/>
<rect x="58" y="25" width="1" height="1"/>
<rect x="5" y="26" width="1" height="1"/>
<rect x="10" y="26" width="4" height="1"/>
<rect x="53" y="26" width="1" height="1"/>
<rect x="5" y="27" width="1" height="1"/>
<rect x="9" y="27" width="1" height="1"/>
<rect x="53" y="27" width="3" height="1"/>
<rect x="53" y="28" width="4" height="1"/>
<rect x="7" y="29" width="1" height="1"/>
<rect x="54" y="29" width="3" height="1"/>
<rect x="57" y="30" width="1" height="1"/>
<rect x="58" y="32" width="1" height="1"/>
<rect x="54" y="33" width="1" height="1"/>
<rect x="11" y="34" width="1" height="1"/>
<rect x="54" y="34" width="1" height="1"/>
<rect x="10" y="35" width="2" height="1"/>
<rect x="54" y="35" width="1" height="1"/>
<rect x="9" y="36" width="2" height="1"/>
<rect x="53" y="36" width="3" height="1"/>
<rect x="8" y="37" width="1" height="1"/>
<rect x="53" y="37" width="3" height="1"/>
<rect x="13" y="38" width="1" height="1"/>
<rect x="52" y="38" width="1" height="1"/>
<rect x="56" y="38" width="1" height="1"/>
<rect x="12" y="39" width="3" height="1"/>
<rect x="57" y="39" width="1" height="1"/>
<rect x="15" y="40" width="1" height="1"/>
<rect x="50" y="40" width="2" height="1"/>
<rect x="12" y="41" width="1" height="1"/>
<rect x="17" y="41" width="3" height="1"/>
<rect x="49" y="41" width="1" height="1"/>
<rect x="54" y="41" width="1" height="1"/>
<rect x="15" y="42" width="2" height="1"/>
<rect x="20" y="42" width="1" height="1"/>
<rect x="47" y="42" width="3" height="1"/>
<rect x="55" y="42" width="1" height="1"/>
<rect x="14" y="43" width="2" height="1"/>
<rect x="21" y="43" width="3" height="1"/>
<rect x="46" y="43" width="2" height="1"/>
<rect x="56" y="43" width="1" height="1"/>
<rect x="14" y="44" width="1" height="1"/>
<rect x="22" y="44" width="4" height="1"/>
<rect x="40" y="44" width="6" height="1"/>
<rect x="52" y="44" width="1" height="1"/>
<rect x="13" y="45" width="1" height="1"/>
<rect x="22" y="45" width="3" height="1"/>
<rect x="26" y="45" width="1" height="1"/>
<rect x="34" y="45" width="2" height="1"/>
<rect x="38" y="45" width="2" height="1"/>
<rect x="42" y="45" width="2" height="1"/>
<rect x="45" y="45" width="1" height="1"/>
<rect x="53" y="45" width="1" height="1"/>
<rect x="57" y="45" width="1" height="1"/>
<rect x="13" y="46" width="1" height="1"/>
<rect x="23" y="46" width="1" height="1"/>
<rect x="27" y="46" width="2" height="1"/>
<rect x="32" y="46" width="2" height="1"/>
<rect x="35" y="46" width="6" height="1"/>
<rect x="45" y="46" width="2" height="1"/>
<rect x="54" y="46" width="1" height="1"/>
<rect x="23" y="47" width="1" height="1"/>
<rect x="29" y="47" width="3" height="1"/>
<rect x="35" y="47" width="2" height="1"/>
<rect x="39" y="47" width="2" height="1"/>
<rect x="45" y="47" width="2" height="1"/>
<rect x="55" y="47" width="1" height="1"/>
<rect x="21" y="48" width="1" height="1"/>
<rect x="29" y="48" width="4" height="1"/>
<rect x="41" y="48" width="1" height="1"/>
<rect x="47" y="48" width="1" height="1"/>
<rect x="55" y="48" width="1" height="1"/>
<rect x="20" y="49" width="1" height="1"/>
<rect x="29" y="49" width="2" height="1"/>
<rect x="32" y="49" width="2" height="1"/>
<rect x="41" y="49" width="1" height="1"/>
<rect x="47" y="49" width="1" height="1"/>
<rect x="19" y="50" width="1" height="1"/>
<rect x="29" y="50" width="2" height="1"/>
<rect x="33" y="50" width="1" height="1"/>
<rect x="19" y="51" width="1" height="1"/>
<rect x="30" y="51" width="1" height="1"/>
<rect x="42" y="51" width="1" height="1"/>
<rect x="34" y="52" width="2" height="1"/>
<rect x="42" y="52" width="1" height="1"/>
<rect x="34" y="53" width="1" height="1"/>
</g>
<g fill="#ffdd5c">
<rect x="22" y="2" width="1" height="1"/>
<rect x="38" y="2" width="1" height="1"/>
<rect x="40" y="2" width="1" height="1"/>
<rect x="18" y="3" width="1" height="1"/>
<rect x="20" y="3" width="4" height="1"/>
<rect x="27" y="3" width="1" height="1"/>
<rect x="36" y="3" width="1" height="1"/>
<rect x="38" y="3" width="2" height="1"/>
<rect x="41" y="3" width="1" height="1"/>
<rect x="18" y="4" width="1" height="1"/>
<rect x="21" y="4" width="4" height="1"/>
<rect x="28" y="4" width="1" height="1"/>
<rect x="36" y="4" width="1" height="1"/>
<rect x="42" y="4" width="1" height="1"/>
<rect x="18" y="5" width="2" height="1"/>
<rect x="23" y="5" width="3" height="1"/>
<rect x="28" y="5" width="1" height="1"/>
<rect x="37" y="5" width="4" height="1"/>
<rect x="43" y="5" width="1" height="1"/>
<rect x="45" y="5" width="1" height="1"/>
<rect x="24" y="6" width="3" height="1"/>
<rect x="29" y="6" width="2" height="1"/>
<rect x="36" y="6" width="6" height="1"/>
<rect x="17" y="7" width="1" height="1"/>
<rect x="19" y="7" width="1" height="1"/>
<rect x="21" y="7" width="2" height="1"/>
<rect x="25" y="7" width="3" height="1"/>
<rect x="35" y="7" width="5" height="1"/>
<rect x="41" y="7" width="2" height="1"/>
<rect x="15" y="8" width="1" height="1"/>
<rect x="20" y="8" width="2" height="1"/>
<rect x="23" y="8" width="1" height="1"/>
<rect x="25" y="8" width="3" height="1"/>
<rect x="30" y="8" width="1" height="1"/>
<rect x="35" y="8" width="3" height="1"/>
<rect x="40" y="8" width="2" height="1"/>
<rect x="47" y="8" width="3" height="1"/>
<rect x="13" y="9" width="2" height="1"/>
<rect x="16" y="9" width="1" height="1"/>
<rect x="22" y="9" width="1" height="1"/>
<rect x="25" y="9" width="4" height="1"/>
<rect x="34" y="9" width="4" height="1"/>
<rect x="40" y="9" width="1" height="1"/>
<rect x="49" y="9" width="3" height="1"/>
<rect x="14" y="10" width="2" height="1"/>
<rect x="23" y="10" width="1" height="1"/>
<rect x="25" y="10" width="4" height="1"/>
<rect x="30" y="10" width="1" height="1"/>
<rect x="34" y="10" width="3" height="1"/>
<rect x="39" y="10" width="1" height="1"/>
<rect x="48" y="10" width="3" height="1"/>
<rect x="52" y="10" width="1" height="1"/>
<rect x="26" y="11" width="4" height="1"/>
<rect x="34" y="11" width="2" height="1"/>
<rect x="37" y="11" width="2" height="1"/>
<rect x="51" y="11" width="1" height="1"/>
<rect x="55" y="11" width="1" height="1"/>
<rect x="9" y="12" width="1" height="1"/>
<rect x="12" y="12" width="1" height="1"/>
<rect x="14" y="12" width="1" height="1"/>
<rect x="28" y="12" width="1" height="1"/>
<rect x="34" y="12" width="2" height="1"/>
<rect x="51" y="12" width="1" height="1"/>
<rect x="55" y="12" width="2" height="1"/>
<rect x="13" y="13" width="2" height="1"/>
<rect x="29" y="13" width="1" height="1"/>
<rect x="34" y="13" width="1" height="1"/>
<rect x="53" y="13" width="4" height="1"/>
<rect x="10" y="14" width="1" height="1"/>
<rect x="13" y="14" width="1" height="1"/>
<rect x="35" y="14" width="1" height="1"/>
<rect x="53" y="14" width="4" height="1"/>
<rect x="7" y="15" width="1" height="1"/>
<rect x="10" y="15" width="2" height="1"/>
<rect x="52" y="15" width="1" height="1"/>
<rect x="54" y="15" width="3" height="1"/>
<rect x="7" y="16" width="1" height="1"/>
<rect x="9" y="16" width="2" height="1"/>
<rect x="53" y="16" width="3" height="1"/>
<rect x="12" y="17" width="1" height="1"/>
<rect x="50" y="17" width="2" height="1"/>
<rect x="53" y="17" width="3" height="1"/>
<rect x="8" y="18" width="1" height="1"/>
<rect x="52" y="18" width="3" height="1"/>
<rect x="8" y="19" width="2" height="1"/>
<rect x="52" y="19" width="2" height="1"/>
<rect x="8" y="20" width="4" height="1"/>
<rect x="51" y="20" width="3" height="1"/>
<rect x="8" y="21" width="5" height="1"/>
<rect x="51" y="21" width="1" height="1"/>
<rect x="11" y="22" width="3" height="1"/>
<rect x="53" y="22" width="2" height="1"/>
<rect x="13" y="23" width="2" height="1"/>
<rect x="10" y="24" width="1" height="1"/>
<rect x="12" y="24" width="1" height="1"/>
<rect x="14" y="24" width="1" height="1"/>
<rect x="52" y="24" width="6" height="1"/>
<rect x="10" y="25" width="1" height="1"/>
<rect x="53" y="25" width="2" height="1"/>
<rect x="57" y="25" width="1" height="1"/>
<rect x="8" y="26" width="1" height="1"/>
<rect x="57" y="26" width="2" height="1"/>
<rect x="8" y="27" width="1" height="1"/>
<rect x="11" y="27" width="1" height="1"/>
<rect x="58" y="27" width="2" height="1"/>
<rect x="5" y="28" width="3" height="1"/>
<rect x="9" y="28" width="1" height="1"/>
<rect x="11" y="28" width="2" height="1"/>
<rect x="58" y="28" width="2" height="1"/>
<rect x="4" y="29" width="3" height="1"/>
<rect x="8" y="29" width="1" height="1"/>
<rect x="11" y="29" width="1" height="1"/>
<rect x="59" y="29" width="2" height="1"/>
<rect x="3" y="30" width="3" height="1"/>
<rect x="7" y="30" width="2" height="1"/>
<rect x="10" y="30" width="2" height="1"/>
<rect x="55" y="30" width="1" height="1"/>
<rect x="59" y="30" width="2" height="1"/>
<rect x="4" y="31" width="4" height="1"/>
<rect x="11" y="31" width="1" height="1"/>
<rect x="54" y="31" width="1" height="1"/>
<rect x="57" y="31" width="1" height="1"/>
<rect x="59" y="31" width="2" height="1"/>
<rect x="5" y="32" width="3" height="1"/>
<rect x="9" y="32" width="3" height="1"/>
<rect x="55" y="32" width="3" height="1"/>
<rect x="59" y="32" width="1" height="1"/>
<rect x="6" y="33" width="2" height="1"/>
<rect x="10" y="33" width="2" height="1"/>
<rect x="56" y="33" width="2" height="1"/>
<rect x="7" y="34" width="2" height="1"/>
<rect x="10" y="34" width="1" height="1"/>
<rect x="56" y="34" width="3" height="1"/>
<rect x="7" y="35" width="3" height="1"/>
<rect x="56" y="35" width="2" height="1"/>
<rect x="7" y="36" width="2" height="1"/>
<rect x="56" y="36" width="1" height="1"/>
<rect x="9" y="37" width="2" height="1"/>
<rect x="10" y="38" width="3" height="1"/>
<rect x="53" y="38" width="1" height="1"/>
<rect x="52" y="39" width="1" height="1"/>
<rect x="54" y="39" width="3" height="1"/>
<rect x="13" y="40" width="2" height="1"/>
<rect x="55" y="40" width="3" height="1"/>
<rect x="13" y="41" width="3" height="1"/>
<rect x="50" y="41" width="4" height="1"/>
<rect x="56" y="41" width="2" height="1"/>
<rect x="12" y="42" width="3" height="1"/>
<rect x="17" y="42" width="3" height="1"/>
<rect x="51" y="42" width="4" height="1"/>
<rect x="57" y="42" width="1" height="1"/>
<rect x="12" y="43" width="2" height="1"/>
<rect x="16" y="43" width="2" height="1"/>
<rect x="50" y="43" width="1" height="1"/>
<rect x="53" y="43" width="3" height="1"/>
<rect x="57" y="43" width="2" height="1"/>
<rect x="12" y="44" width="2" height="1"/>
<rect x="15" y="44" width="2" height="1"/>
<rect x="20" y="44" width="2" height="1"/>
<rect x="46" y="44" width="1" height="1"/>
<rect x="48" y="44" width="2" height="1"/>
<rect x="53" y="44" width="5" height="1"/>
<rect x="14" y="45" width="3" height="1"/>
<rect x="18" y="45" width="4" height="1"/>
<rect x="41" y="45" width="1" height="1"/>
<rect x="47" y="45" width="6" height="1"/>
<rect x="54" y="45" width="3" height="1"/>
<rect x="14" y="46" width="3" height="1"/>
<rect x="18" y="46" width="2" height="1"/>
<rect x="25" y="46" width="2" height="1"/>
<rect x="42" y="46" width="1" height="1"/>
<rect x="44" y="46" width="1" height="1"/>
<rect x="48" y="46" width="1" height="1"/>
<rect x="50" y="46" width="4" height="1"/>
<rect x="55" y="46" width="3" height="1"/>
<rect x="14" y="47" width="5" height="1"/>
<rect x="20" y="47" width="3" height="1"/>
<rect x="25" y="47" width="1" height="1"/>
<rect x="27" y="47" width="2" height="1"/>
<rect x="32" y="47" width="3" height="1"/>
<rect x="38" y="47" width="1" height="1"/>
<rect x="41" y="47" width="1" height="1"/>
<rect x="44" y="47" width="1" height="1"/>
<rect x="47" y="47" width="1" height="1"/>
<rect x="51" y="47" width="4" height="1"/>
<rect x="56" y="47" width="2" height="1"/>
<rect x="14" y="48" width="4" height="1"/>
<rect x="19" y="48" width="2" height="1"/>
<rect x="23" y="48" width="6" height="1"/>
<rect x="33" y="48" width="1" height="1"/>
<rect x="38" y="48" width="1" height="1"/>
<rect x="43" y="48" width="1" height="1"/>
<rect x="48" y="48" width="1" height="1"/>
<rect x="50" y="48" width="1" height="1"/>
<rect x="53" y="48" width="2" height="1"/>
<rect x="15" y="49" width="4" height="1"/>
<rect x="21" y="49" width="1" height="1"/>
<rect x="24" y="49" width="5" height="1"/>
<rect x="31" y="49" width="1" height="1"/>
<rect x="35" y="49" width="1" height="1"/>
<rect x="20" y="50" width="3" height="1"/>
<rect x="24" y="50" width="2" height="1"/>
<rect x="27" y="50" width="2" height="1"/>
<rect x="31" y="50" width="2" height="1"/>
<rect x="36" y="50" width="2" height="1"/>
<rect x="41" y="50" width="4" height="1"/>
<rect x="20" y="51" width="8" height="1"/>
<rect x="31" y="51" width="2" height="1"/>
<rect x="36" y="51" width="3" height="1"/>
<rect x="43" y="51" width="1" height="1"/>
<rect x="33" y="52" width="1" height="1"/>
<rect x="37" y="52" width="3" height="1"/>
<rect x="35" y="53" width="5" height="1"/>
</g>
</g>
</svg>