<svg xmlns="http://www.w3.org/2000/svg" xmlns:xlink="http://www.w3.org/1999/xlink" viewBox="0,0,256,256" width="100px" height="100px"><g fill="none" fill-rule="nonzero" stroke="none" stroke-width="none" stroke-linecap="none" stroke-linejoin="none" stroke-miterlimit="10" stroke-dasharray="" stroke-dashoffset="0" font-family="none" font-weight="none" font-size="none" text-anchor="none" style="mix-blend-mode: normal"><g transform="scale(2.56,2.56)"><path d="M77,12c-0.552,0 -1,0.448 -1,1c0,0.552 0.448,1 1,1c0.552,0 1,-0.448 1,-1c0,-0.552 -0.448,-1 -1,-1z" fill="#f1bc19" stroke="none" stroke-width="1" stroke-linecap="butt" stroke-linejoin="miter"></path><path d="M50,13c-20.435,0 -37,16.565 -37,37c0,20.435 16.565,37 37,37c20.435,0 37,-16.565 37,-37c0,-20.435 -16.565,-37 -37,-37z" fill="#f3a3a3" stroke="none" stroke-width="1" stroke-linecap="butt" stroke-linejoin="miter"></path><path d="M83,11c-2.209,0 -4,1.791 -4,4c0,2.209 1.791,4 4,4c2.209,0 4,-1.791 4,-4c0,-2.209 -1.791,-4 -4,-4z" fill="#f1bc19" stroke="none" stroke-width="1" stroke-linecap="butt" stroke-linejoin="miter"></path><path d="M87,22c-1.105,0 -2,0.895 -2,2c0,1.105 0.895,2 2,2c1.105,0 2,-0.895 2,-2c0,-1.105 -0.895,-2 -2,-2z" fill="#cd4054" stroke="none" stroke-width="1" stroke-linecap="butt" stroke-linejoin="miter"></path><path d="M81,74c-1.105,0 -2,0.895 -2,2c0,1.105 0.895,2 2,2c1.105,0 2,-0.895 2,-2c0,-1.105 -0.895,-2 -2,-2zM15,59c-2.209,0 -4,1.791 -4,4c0,2.209 1.791,4 4,4c2.209,0 4,-1.791 4,-4c0,-2.209 -1.791,-4 -4,-4z" fill="#fbcd59" stroke="none" stroke-width="1" stroke-linecap="butt" stroke-linejoin="miter"></path><path d="M25,85c-1.105,0 -2,0.895 -2,2c0,1.105 0.895,2 2,2c1.105,0 2,-0.895 2,-2c0,-1.105 -0.895,-2 -2,-2z" fill="#cd4054" stroke="none" stroke-width="1" stroke-linecap="butt" stroke-linejoin="miter"></path><path d="M18.5,49c-1.381,0 -2.5,1.119 -2.5,2.5c0,1.381 1.119,2.5 2.5,2.5c1.381,0 2.5,-1.119 2.5,-2.5c0,-1.381 -1.119,-2.5 -2.5,-2.5zM79.5,32c-0.828,0 -1.5,0.672 -1.5,1.5c0,0.828 0.672,1.5 1.5,1.5c0.828,0 1.5,-0.672 1.5,-1.5c0,-0.828 -0.672,-1.5 -1.5,-1.5z" fill="#ffffff" stroke="none" stroke-width="1" stroke-linecap="butt" stroke-linejoin="miter"></path><path d="M36.224,48.245v20.633h-8.163c-1.694,0 -3.061,-1.184 -3.061,-2.878v-26.53z" fill="#78a0cf" stroke="none" stroke-width="1" stroke-linecap="butt" stroke-linejoin="miter"></path><path d="M36.224,34v14.245l-11.224,-8.775v-2.735c0,-1.306 0.449,-2.51 1.194,-3.459c1.848,-2.401 5.477,-2.883 7.878,-0.959z" fill="#c4211f" stroke="none" stroke-width="1" stroke-linecap="butt" stroke-linejoin="miter"></path><path d="M63.775,34v14.235l-13.775,10.765l-13.776,-10.755v-14.245l13.776,10.755z" fill="#eb4235" stroke="none" stroke-width="1" stroke-linecap="butt" stroke-linejoin="miter"></path><path d="M75,36.735v2.735l-11.224,8.765v-14.235l2.153,-1.684c1.031,-0.806 2.245,-1.194 3.459,-1.194c3.02,-0.028 5.647,2.537 5.612,5.613z" fill="#f1bc19" stroke="none" stroke-width="1" stroke-linecap="butt" stroke-linejoin="miter"></path><path d="M75,39.47v26.347c0,1.694 -1.367,3.061 -3.061,3.061h-8.163v-20.643z" fill="#9ca74c" stroke="none" stroke-width="1" stroke-linecap="butt" stroke-linejoin="miter"></path><path d="M28.061,63.776v2.04" fill="none" stroke="#472b29" stroke-width="0.75" stroke-linecap="round" stroke-linejoin="round"></path><path d="M28.061,57.653v3.061" fill="none" stroke="#472b29" stroke-width="0.75" stroke-linecap="round" stroke-linejoin="round"></path><path d="M28.061,47.449v7.085" fill="none" stroke="#472b29" stroke-width="0.75" stroke-linecap="round" stroke-linejoin="round"></path><path d="M36.224,34.236v34.641h-8.163c-1.691,0 -3.061,-1.371 -3.061,-3.061v-29.081c0,-3.1 2.513,-5.612 5.612,-5.612" fill="none" stroke="#472b29" stroke-width="1.4" stroke-linecap="butt" stroke-linejoin="round"></path><path d="M73.81,33.28c-1.908,-2.442 -5.435,-2.876 -7.878,-0.967l-15.932,12.447v0l-15.933,-12.448c-2.442,-1.908 -5.969,-1.475 -7.878,0.967" fill="none" stroke="#472b29" stroke-width="1.4" stroke-linecap="butt" stroke-linejoin="round"></path><path d="M51.412,54.002l4.64,-3.671" fill="none" stroke="#472b29" stroke-width="0.75" stroke-linecap="round" stroke-linejoin="round"></path><path d="M45.648,51.676l3.612,2.858" fill="none" stroke="#472b29" stroke-width="0.75" stroke-linecap="round" stroke-linejoin="round"></path><path d="M41.651,48.513l2.396,1.896" fill="none" stroke="#472b29" stroke-width="0.75" stroke-linecap="round" stroke-linejoin="round"></path><path d="M39.017,46.429l1.033,0.818" fill="none" stroke="#472b29" stroke-width="0.75" stroke-linecap="round" stroke-linejoin="round"></path><path d="M25.163,39.6l24.837,19.404v0l24.819,-19.39" fill="none" stroke="#472b29" stroke-width="1.4" stroke-linecap="butt" stroke-linejoin="round"></path><path d="M69.387,31.123c3.1,0 5.612,2.513 5.612,5.612v29.081c0,1.691 -1.371,3.061 -3.061,3.061h-8.163v-34.71" fill="none" stroke="#472b29" stroke-width="1.4" stroke-linecap="butt" stroke-linejoin="round"></path></g></g></svg>